<?xml version="1.0" encoding="UTF-8" standalone="yes"?>
<!-- Created with sK1/UniConvertor (http://sk1project.org/) -->
<svg xmlns="http://www.w3.org/2000/svg" xmlns:xlink="http://www.w3.org/1999/xlink"
  width="595.276pt" height="841.89pt" viewBox="0 0 595.276 841.89"
  fill-rule="evenodd">
<g>
<path style="stroke:none; fill:none" d="M 29.9589 791.889C 36.5721 791.889 41.9511 797.198 41.9511 803.722C 41.9511 812.421 34.5799 823.376 29.9667 828.852C 27.0135 825.3 17.9668 813.6 17.9668 803.722C 17.9668 797.198 23.3457 791.889 29.9589 791.889M 29.9589 789.89C 22.2441 789.89 15.9667 796.095 15.9667 803.722C 15.9667 816.21 28.8515 830.659 29.4003 831.264L 29.961 831.889L 30.5213 831.264C 31.0704 830.651 43.9511 816.116 43.9511 803.722C 43.9511 796.095 37.6737 789.89 29.9589 789.89L 29.9589 789.89z"/>
<path style="stroke:none; fill:none" d="M 32.5195 805.479L 30.3651 810.866L 29.6893 809.335L 29.3769 808.622L 28.666 808.307L 27.1307 807.635L 32.5195 805.479M 36.1093 801.89L 21.9667 807.546L 27.8593 810.139L 30.4511 816.032L 36.1093 801.89L 36.1093 801.89z"/>
<path style="stroke:none; fill:none" d="M 53.9667 823.889L 41.9667 817.89L 41.9667 820.126L 52.3299 825.308L 56.414 837.552L 46.9589 832.153L 46.0293 831.622L 45.0721 832.1L 29.9667 839.653L 14.8613 832.1L 13.9043 831.622L 12.9745 832.153L 3.5195 837.552L 7.6036 825.308L 17.9668 820.126L 17.9668 817.89L 5.9667 823.889L -0.0333 841.884L 13.9667 833.89L 29.9667 841.89L 45.9667 833.89L 59.9667 841.884L 53.9667 823.889z"/>
<path style="stroke:none; fill:none" d="M 30.9667 839.889L 28.9667 839.889L 28.9667 833.89L 30.9667 833.89L 30.9667 839.889z"/>
<path style="stroke:none; fill:none" d="M 17.9668 821.89L 13.9667 831.889L 15.9667 831.889L 19.9667 821.89L 17.9668 821.89z"/>
<path style="stroke:none; fill:none" d="M 41.9667 821.89L 45.9667 831.889L 43.9667 831.889L 39.9668 821.89L 41.9667 821.89z"/>
</g>
</svg>