<svg id="SvgjsSvg1009" xmlns="http://www.w3.org/2000/svg" version="1.1" xmlns:xlink="http://www.w3.org/1999/xlink" xmlns:svgjs="http://svgjs.com/svgjs" width="54" height="54" viewBox="0 0 54 54"><title>Shape 13</title><desc>Created with Avocode.</desc><defs id="SvgjsDefs1010"></defs><path id="SvgjsPath1011" d="M456.553 1629L441.03057 1613.47757L436.85900000000004 1617.65L433.26000000000005 1604.2900000000002L446.6170000000001 1607.89L442.44243000000006 1612.06543L457.96700000000004 1627.5900000000001ZM420.07421 1592.52121L404.553 1577L405.967 1575.59L421.48679 1591.10979L425.65999999999997 1586.94L429.26 1600.29L415.902 1596.69ZM441.03514 1591.10786L456.553 1575.5900000000001L457.967 1577.0000000000002L442.44685 1592.5201500000003L446.615 1596.6900000000003L433.26 1600.2900000000002L436.859 1586.9300000000003ZM405.967 1629L404.553 1627.59L420.07764 1612.0653599999998L415.904 1607.8899999999999L429.26 1604.29L425.65999999999997 1617.6499999999999L421.48934999999994 1613.4776499999998Z " fill="#ffffff" fill-opacity="1" transform="matrix(1,0,0,1,-404,-1575)"></path><path id="SvgjsPath1012" d="M456.553 1629L441.03057 1613.47757L436.85900000000004 1617.65L433.26000000000005 1604.2900000000002L446.6170000000001 1607.89L442.44243000000006 1612.06543L457.96700000000004 1627.5900000000001ZM420.07421 1592.52121L404.553 1577L405.967 1575.59L421.48679 1591.10979L425.65999999999997 1586.94L429.26 1600.29L415.902 1596.69ZM441.03514 1591.10786L456.553 1575.5900000000001L457.967 1577.0000000000002L442.44685 1592.5201500000003L446.615 1596.6900000000003L433.26 1600.2900000000002L436.859 1586.9300000000003ZM405.967 1629L404.553 1627.59L420.07764 1612.0653599999998L415.904 1607.8899999999999L429.26 1604.29L425.65999999999997 1617.6499999999999L421.48934999999994 1613.4776499999998Z " fill="#5bb154" fill-opacity="1" transform="matrix(1,0,0,1,-404,-1575)"></path></svg>