<svg id="SvgjsSvg1013" xmlns="http://www.w3.org/2000/svg" version="1.1" xmlns:xlink="http://www.w3.org/1999/xlink" xmlns:svgjs="http://svgjs.com/svgjs" width="49" height="54" viewBox="0 0 49 54"><title>Shape 261</title><desc>Created with Avocode.</desc><defs id="SvgjsDefs1014"></defs><path id="SvgjsPath1015" d="M811.967 1427C809.758 1427 807.967 1428.79 807.967 1431L807.967 1461C807.967 1463.21 809.758 1465 811.967 1465L851.967 1465C854.1759999999999 1465 855.967 1463.21 855.967 1461L855.967 1431C855.967 1428.79 854.1759999999999 1427 851.967 1427ZM853.967 1431L853.967 1461C853.967 1462.1 853.068 1463 851.967 1463L811.967 1463C810.865 1463 809.967 1462.1 809.967 1461L809.967 1431C809.967 1429.9 810.865 1429 811.967 1429L851.967 1429C853.068 1429 853.967 1429.9 853.967 1431ZM856 1469L856 1467L808 1467L808 1469L813.967 1469L811.967 1475L813.967 1475L815.967 1469L847.967 1469L849.967 1475L851.967 1475L849.967 1469ZM829.967 1433C828.861 1433 827.967 1433.89 827.967 1435L827.967 1457C827.967 1458.1 828.861 1459 829.967 1459L833.967 1459C835.072 1459 835.967 1458.1 835.967 1457L835.967 1435C835.967 1433.89 835.072 1433 833.967 1433ZM833.967 1457L829.967 1457L829.967 1435L833.967 1435ZM819.967 1449C818.861 1449 817.967 1449.89 817.967 1451L817.967 1457C817.967 1458.1 818.861 1459 819.967 1459L823.967 1459C825.072 1459 825.967 1458.1 825.967 1457L825.967 1451C825.967 1449.89 825.072 1449 823.967 1449ZM827.967 1425L835.967 1425L831.967 1421ZM823.967 1457L819.967 1457L819.967 1451L823.967 1451ZM839.967 1441C838.861 1441 837.967 1441.89 837.967 1443L837.967 1457C837.967 1458.1 838.861 1459 839.967 1459L843.967 1459C845.072 1459 845.967 1458.1 845.967 1457L845.967 1443C845.967 1441.89 845.072 1441 843.967 1441ZM843.967 1457L839.967 1457L839.967 1443L843.967 1443Z " fill="#ffffff" fill-opacity="1" transform="matrix(1,0,0,1,-807,-1421)"></path><path id="SvgjsPath1016" d="M811.967 1427C809.758 1427 807.967 1428.79 807.967 1431L807.967 1461C807.967 1463.21 809.758 1465 811.967 1465L851.967 1465C854.1759999999999 1465 855.967 1463.21 855.967 1461L855.967 1431C855.967 1428.79 854.1759999999999 1427 851.967 1427ZM853.967 1431L853.967 1461C853.967 1462.1 853.068 1463 851.967 1463L811.967 1463C810.865 1463 809.967 1462.1 809.967 1461L809.967 1431C809.967 1429.9 810.865 1429 811.967 1429L851.967 1429C853.068 1429 853.967 1429.9 853.967 1431ZM856 1469L856 1467L808 1467L808 1469L813.967 1469L811.967 1475L813.967 1475L815.967 1469L847.967 1469L849.967 1475L851.967 1475L849.967 1469ZM829.967 1433C828.861 1433 827.967 1433.89 827.967 1435L827.967 1457C827.967 1458.1 828.861 1459 829.967 1459L833.967 1459C835.072 1459 835.967 1458.1 835.967 1457L835.967 1435C835.967 1433.89 835.072 1433 833.967 1433ZM833.967 1457L829.967 1457L829.967 1435L833.967 1435ZM819.967 1449C818.861 1449 817.967 1449.89 817.967 1451L817.967 1457C817.967 1458.1 818.861 1459 819.967 1459L823.967 1459C825.072 1459 825.967 1458.1 825.967 1457L825.967 1451C825.967 1449.89 825.072 1449 823.967 1449ZM827.967 1425L835.967 1425L831.967 1421ZM823.967 1457L819.967 1457L819.967 1451L823.967 1451ZM839.967 1441C838.861 1441 837.967 1441.89 837.967 1443L837.967 1457C837.967 1458.1 838.861 1459 839.967 1459L843.967 1459C845.072 1459 845.967 1458.1 845.967 1457L845.967 1443C845.967 1441.89 845.072 1441 843.967 1441ZM843.967 1457L839.967 1457L839.967 1443L843.967 1443Z " fill="#5bb154" fill-opacity="1" transform="matrix(1,0,0,1,-807,-1421)"></path></svg>