<?xml version="1.0" encoding="UTF-8" standalone="yes"?>
<!-- Created with sK1/UniConvertor (http://sk1project.org/) -->
<svg xmlns="http://www.w3.org/2000/svg" xmlns:xlink="http://www.w3.org/1999/xlink"
  width="595.276pt" height="841.89pt" viewBox="0 0 595.276 841.89"
  fill-rule="evenodd">
<g>
<path style="stroke:none; fill:none" d="M 18.9667 835.889C 18.9667 836.995 18.0721 837.89 16.9667 837.89C 15.8614 837.89 14.9668 836.995 14.9668 835.889C 14.9668 834.784 15.8614 833.89 16.9667 833.89C 18.0721 833.89 18.9667 834.784 18.9667 835.889z"/>
<path style="stroke:none; fill:none" d="M 30.2597 787.889L 3.6737 787.889C 2.1795 787.889 0.9668 789.102 0.9668 790.598L 0.9668 839.181C 0.9668 840.678 2.1795 841.89 3.6737 841.89L 30.2597 841.89C 31.7539 841.89 32.9667 840.678 32.9667 839.181L 32.9667 790.598C 32.9667 789.102 31.7539 787.889 30.2597 787.889zM 30.9668 839.181C 30.9668 839.571 30.6503 839.889 30.2597 839.889L 3.6737 839.889C 3.2831 839.889 2.9667 839.571 2.9667 839.181L 2.9667 831.889L 30.9668 831.889L 30.9668 839.181zM 30.9668 793.89L 30.9668 793.93L 30.9668 795.931L 30.9668 799.889L 30.9668 829.89L 2.9667 829.89L 2.9667 799.889L 2.9667 795.931L 2.9667 793.93L 2.9667 793.89L 2.9667 790.598C 2.9667 790.208 3.2831 789.89 3.6737 789.89L 30.2597 789.89C 30.6503 789.89 30.9668 790.208 30.9668 790.598L 30.9668 793.89z"/>
<path style="stroke:none; fill:none" d="M 20.9667 793.89L 12.9667 793.89L 12.9667 791.889L 20.9667 791.889L 20.9667 793.89z"/>
</g>
</svg>