<svg id="SvgjsSvg1021" xmlns="http://www.w3.org/2000/svg" version="1.1" xmlns:xlink="http://www.w3.org/1999/xlink" xmlns:svgjs="http://svgjs.com/svgjs" width="51" height="52" viewBox="0 0 51 52"><title>Shape 111</title><desc>Created with Avocode.</desc><defs id="SvgjsDefs1022"></defs><path id="SvgjsPath1023" d="M407.967 1756C407.967 1760.42 411.549 1764 415.967 1764C418.48872 1764 420.73807 1762.83366 422.20441999999997 1761.01051L434.68033999999994 1768.6924000000001C434.2221799999999 1769.70036 433.9669999999999 1770.8202600000002 433.9669999999999 1772.0000000000002C433.9669999999999 1776.4200000000003 437.5489999999999 1780.0000000000002 441.9669999999999 1780.0000000000002C446.38499999999993 1780.0000000000002 449.9669999999999 1776.4200000000003 449.9669999999999 1772.0000000000002C449.9669999999999 1767.5800000000002 446.38499999999993 1764.0000000000002 441.9669999999999 1764.0000000000002C439.4472599999999 1764.0000000000002 437.19944999999996 1765.1645100000003 435.73301999999995 1766.9852100000003L423.25275999999997 1759.3095900000003C423.71148 1758.3011200000003 423.96700999999996 1757.1805200000003 423.96700999999996 1756.0000000000002C423.96700999999996 1754.8748300000002 423.73488999999995 1753.8041000000003 423.31593999999996 1752.8330000000003L443.62997999999993 1740.8841100000004C445.0929499999999 1742.7795800000004 447.3874799999999 1744.0000000000005 449.9669999999999 1744.0000000000005C454.38499999999993 1744.0000000000005 457.9669999999999 1740.4200000000005 457.9669999999999 1736.0000000000005C457.9669999999999 1731.5800000000004 454.38499999999993 1728.0000000000005 449.9669999999999 1728.0000000000005C445.5489999999999 1728.0000000000005 441.9669999999999 1731.5800000000004 441.9669999999999 1736.0000000000005C441.9669999999999 1737.1239000000005 442.19859999999994 1738.1935000000005 442.6166599999999 1739.1637300000004L422.3021399999999 1751.1134500000005C420.8390799999999 1749.2193700000005 418.5454199999999 1748.0000000000005 415.96699999999987 1748.0000000000005C411.54899999999986 1748.0000000000005 407.96699999999987 1751.5800000000004 407.96699999999987 1756.0000000000005ZM415.967 1750C419.275 1750 421.967 1752.69 421.967 1756C421.967 1759.31 419.275 1762 415.967 1762C412.65799999999996 1762 409.967 1759.31 409.967 1756C409.967 1752.69 412.65799999999996 1750 415.967 1750C419.275 1750 415.967 1750 415.967 1750ZM449.967 1730C453.275 1730 455.967 1732.69 455.967 1736C455.967 1739.31 453.275 1742 449.967 1742C446.65799999999996 1742 443.967 1739.31 443.967 1736C443.967 1732.69 446.65799999999996 1730 449.967 1730C453.275 1730 449.967 1730 449.967 1730ZM441.967 1766C445.275 1766 447.967 1768.69 447.967 1772C447.967 1775.31 445.275 1778 441.967 1778C438.65799999999996 1778 435.967 1775.31 435.967 1772C435.967 1768.69 438.65799999999996 1766 441.967 1766C445.275 1766 441.967 1766 441.967 1766Z " fill="#ffffff" fill-opacity="1" transform="matrix(1,0,0,1,-407,-1728)"></path><path id="SvgjsPath1024" d="M407.967 1756C407.967 1760.42 411.549 1764 415.967 1764C418.48872 1764 420.73807 1762.83366 422.20441999999997 1761.01051L434.68033999999994 1768.6924000000001C434.2221799999999 1769.70036 433.9669999999999 1770.8202600000002 433.9669999999999 1772.0000000000002C433.9669999999999 1776.4200000000003 437.5489999999999 1780.0000000000002 441.9669999999999 1780.0000000000002C446.38499999999993 1780.0000000000002 449.9669999999999 1776.4200000000003 449.9669999999999 1772.0000000000002C449.9669999999999 1767.5800000000002 446.38499999999993 1764.0000000000002 441.9669999999999 1764.0000000000002C439.4472599999999 1764.0000000000002 437.19944999999996 1765.1645100000003 435.73301999999995 1766.9852100000003L423.25275999999997 1759.3095900000003C423.71148 1758.3011200000003 423.96700999999996 1757.1805200000003 423.96700999999996 1756.0000000000002C423.96700999999996 1754.8748300000002 423.73488999999995 1753.8041000000003 423.31593999999996 1752.8330000000003L443.62997999999993 1740.8841100000004C445.0929499999999 1742.7795800000004 447.3874799999999 1744.0000000000005 449.9669999999999 1744.0000000000005C454.38499999999993 1744.0000000000005 457.9669999999999 1740.4200000000005 457.9669999999999 1736.0000000000005C457.9669999999999 1731.5800000000004 454.38499999999993 1728.0000000000005 449.9669999999999 1728.0000000000005C445.5489999999999 1728.0000000000005 441.9669999999999 1731.5800000000004 441.9669999999999 1736.0000000000005C441.9669999999999 1737.1239000000005 442.19859999999994 1738.1935000000005 442.6166599999999 1739.1637300000004L422.3021399999999 1751.1134500000005C420.8390799999999 1749.2193700000005 418.5454199999999 1748.0000000000005 415.96699999999987 1748.0000000000005C411.54899999999986 1748.0000000000005 407.96699999999987 1751.5800000000004 407.96699999999987 1756.0000000000005ZM415.967 1750C419.275 1750 421.967 1752.69 421.967 1756C421.967 1759.31 419.275 1762 415.967 1762C412.65799999999996 1762 409.967 1759.31 409.967 1756C409.967 1752.69 412.65799999999996 1750 415.967 1750C419.275 1750 415.967 1750 415.967 1750ZM449.967 1730C453.275 1730 455.967 1732.69 455.967 1736C455.967 1739.31 453.275 1742 449.967 1742C446.65799999999996 1742 443.967 1739.31 443.967 1736C443.967 1732.69 446.65799999999996 1730 449.967 1730C453.275 1730 449.967 1730 449.967 1730ZM441.967 1766C445.275 1766 447.967 1768.69 447.967 1772C447.967 1775.31 445.275 1778 441.967 1778C438.65799999999996 1778 435.967 1775.31 435.967 1772C435.967 1768.69 438.65799999999996 1766 441.967 1766C445.275 1766 441.967 1766 441.967 1766Z " fill="#5bb154" fill-opacity="1" transform="matrix(1,0,0,1,-407,-1728)"></path></svg>