<svg id="SvgjsSvg1000" xmlns="http://www.w3.org/2000/svg" version="1.1" xmlns:xlink="http://www.w3.org/1999/xlink" xmlns:svgjs="http://svgjs.com/svgjs" width="49" height="48" viewBox="0 0 49 48"><title>Shape 11</title><desc>Created with Avocode.</desc><defs id="SvgjsDefs1001"></defs><path id="SvgjsPath1007" d="M454.203 1468.76L440.58 1455.14C443.318 1451.8500000000001 444.967 1447.6200000000001 444.967 1443C444.967 1432.51 436.461 1424 425.967 1424C415.47499999999997 1424 406.967 1432.51 406.967 1443C406.967 1453.49 415.47499999999997 1462 425.967 1462C430.584 1462 434.813 1460.35 438.10499999999996 1457.61L451.729 1471.24ZM408.967 1443C408.967 1433.62 416.592 1426 425.967 1426C435.34 1426 442.967 1433.62 442.967 1443C442.967 1452.37 435.34 1460 425.967 1460C416.592 1460 408.967 1452.37 408.967 1443Z " fill="#ffffff" fill-opacity="1" transform="matrix(1,0,0,1,-406,-1424)"></path><path id="SvgjsPath1008" d="M454.203 1468.76L440.58 1455.14C443.318 1451.8500000000001 444.967 1447.6200000000001 444.967 1443C444.967 1432.51 436.461 1424 425.967 1424C415.47499999999997 1424 406.967 1432.51 406.967 1443C406.967 1453.49 415.47499999999997 1462 425.967 1462C430.584 1462 434.813 1460.35 438.10499999999996 1457.61L451.729 1471.24ZM408.967 1443C408.967 1433.62 416.592 1426 425.967 1426C435.34 1426 442.967 1433.62 442.967 1443C442.967 1452.37 435.34 1460 425.967 1460C416.592 1460 408.967 1452.37 408.967 1443Z " fill="#5bb154" fill-opacity="1" transform="matrix(1,0,0,1,-406,-1424)"></path></svg>