<svg id="SvgjsSvg1017" xmlns="http://www.w3.org/2000/svg" version="1.1" xmlns:xlink="http://www.w3.org/1999/xlink" xmlns:svgjs="http://svgjs.com/svgjs" width="49" height="56" viewBox="0 0 49 56"><title>Shape 141</title><desc>Created with Avocode.</desc><defs id="SvgjsDefs1018"></defs><path id="SvgjsPath1019" d="M824.967 1579L824.967 1581C821.385 1582.73 818.967 1585.3 818.967 1589L842.967 1589C842.967 1585.3 840.549 1582.73 836.967 1581L836.967 1579C836.967 1575.68 834.279 1573 830.967 1573C827.654 1573 824.967 1575.68 824.967 1579ZM830.967 1575C833.174 1575 834.967 1576.79 834.967 1579L834.967 1582.26L836.097 1582.8C838.4789999999999 1583.95 839.971 1585.33 840.607 1587L821.326 1587C821.963 1585.33 823.455 1583.95 825.836 1582.8L826.967 1582.26L826.967 1579C826.967 1576.79 828.76 1575 830.967 1575C833.174 1575 830.967 1575 830.967 1575ZM843 1599L843 1597L819 1597L819 1599ZM843 1607L843 1605L819 1605L819 1607ZM835 1615L835 1613L819 1613L819 1615ZM828.967 1579C828.967 1580.1 829.861 1581 830.967 1581C832.072 1581 832.967 1580.1 832.967 1579C832.967 1577.89 832.072 1577 830.967 1577C829.861 1577 828.967 1577.89 828.967 1579ZM850.967 1577L838.967 1577L840.3009999999999 1579L850.967 1579C852.068 1579 852.967 1579.9 852.967 1581L852.967 1625C852.967 1626.1 852.068 1627 850.967 1627L810.967 1627C809.865 1627 808.967 1626.1 808.967 1625L808.967 1581C808.967 1579.9 809.865 1579 810.967 1579L821.633 1579L822.967 1577L810.967 1577C808.758 1577 806.967 1578.79 806.967 1581L806.967 1625C806.967 1627.21 808.758 1629 810.967 1629L850.967 1629C853.1759999999999 1629 854.967 1627.21 854.967 1625L854.967 1581C854.967 1578.79 853.1759999999999 1577 850.967 1577Z " fill="#ffffff" fill-opacity="1" transform="matrix(1,0,0,1,-806,-1573)"></path><path id="SvgjsPath1020" d="M824.967 1579L824.967 1581C821.385 1582.73 818.967 1585.3 818.967 1589L842.967 1589C842.967 1585.3 840.549 1582.73 836.967 1581L836.967 1579C836.967 1575.68 834.279 1573 830.967 1573C827.654 1573 824.967 1575.68 824.967 1579ZM830.967 1575C833.174 1575 834.967 1576.79 834.967 1579L834.967 1582.26L836.097 1582.8C838.4789999999999 1583.95 839.971 1585.33 840.607 1587L821.326 1587C821.963 1585.33 823.455 1583.95 825.836 1582.8L826.967 1582.26L826.967 1579C826.967 1576.79 828.76 1575 830.967 1575C833.174 1575 830.967 1575 830.967 1575ZM843 1599L843 1597L819 1597L819 1599ZM843 1607L843 1605L819 1605L819 1607ZM835 1615L835 1613L819 1613L819 1615ZM828.967 1579C828.967 1580.1 829.861 1581 830.967 1581C832.072 1581 832.967 1580.1 832.967 1579C832.967 1577.89 832.072 1577 830.967 1577C829.861 1577 828.967 1577.89 828.967 1579ZM850.967 1577L838.967 1577L840.3009999999999 1579L850.967 1579C852.068 1579 852.967 1579.9 852.967 1581L852.967 1625C852.967 1626.1 852.068 1627 850.967 1627L810.967 1627C809.865 1627 808.967 1626.1 808.967 1625L808.967 1581C808.967 1579.9 809.865 1579 810.967 1579L821.633 1579L822.967 1577L810.967 1577C808.758 1577 806.967 1578.79 806.967 1581L806.967 1625C806.967 1627.21 808.758 1629 810.967 1629L850.967 1629C853.1759999999999 1629 854.967 1627.21 854.967 1625L854.967 1581C854.967 1578.79 853.1759999999999 1577 850.967 1577Z " fill="#5bb154" fill-opacity="1" transform="matrix(1,0,0,1,-806,-1573)"></path></svg>